<svg width="90" height="10" viewBox="0 0 90 10" fill="none" xmlns="http://www.w3.org/2000/svg"><path d="M47.265 9.752h-1.832L48.878.164h1.855l3.449 9.586h-1.834l-.826-2.456h-3.431l-.826 2.458zM49.8 1.825c-.009.04-.225.957-.413 1.485l-.868 2.565h2.561l-.868-2.565c-.179-.536-.379-1.475-.384-1.485H49.8zm8.79 7.931h-1.777V.166h3.155a4.64 4.64 0 0 1 1.969.272 2.706 2.706 0 0 1 1.6 2.62 2.748 2.748 0 0 1-1.654 2.62v.027c.128.145.24.303.331.473l2.011 3.577h-1.982L60.3 6.178h-1.71v3.578zm0-8.09v3h1.6a1.4 1.4 0 0 0 1.541-1.516c0-1.04-.536-1.485-1.791-1.485h-1.35zm12.003 8.086h-3.335V.166h3.335a5.17 5.17 0 0 1 3.625 1.255 4.68 4.68 0 0 1 1.361 3.524c0 2.965-1.91 4.807-4.986 4.807zm-1.558-8.086v6.587h1.461a2.985 2.985 0 0 0 3.25-3.308 3 3 0 0 0-3.25-3.279h-1.46zm9.729 5.628a3.951 3.951 0 0 0 2.439 1.01c.744 0 1.42-.378 1.42-1.16 0-1.714-4.617-1.417-4.617-4.359 0-1.595 1.405-2.782 3.279-2.782a4.2 4.2 0 0 1 2.921 1.026l-.773 1.42a3.618 3.618 0 0 0-2.165-.838c-.824 0-1.471.473-1.471 1.148 0 1.7 4.6 1.283 4.6 4.35 0 1.526-1.184 2.808-3.224 2.808a4.777 4.777 0 0 1-3.376-1.308l.967-1.315zM31.472.164l-1.613 6.634c-.075.334-.13.671-.164 1.011h-.028a7.697 7.697 0 0 0-.179-1.01L27.752.163h-1.543l-1.763 6.634a7.34 7.34 0 0 0-.179 1.011h-.028a8.792 8.792 0 0 0-.165-1.01L22.92 1.831l-.868 3.62 1.1 4.3h2.051l1.5-5.67c.107-.413.19-.833.249-1.256h.026c.059.423.142.843.249 1.256l1.5 5.67h2.057L33.307.164h-1.835zM42.51.166L40.894 6.8c-.075.334-.13.671-.164 1.011h-.029a7.025 7.025 0 0 0-.177-1.01L38.787.165h-1.54L35.48 6.8a7.23 7.23 0 0 0-.179 1.011h-.027a8.326 8.326 0 0 0-.165-1.01l-1.16-4.99-.869 3.62 1.106 4.323h2.053l1.5-5.67c.106-.414.19-.834.25-1.257h.026c.059.423.142.843.248 1.256l1.5 5.671h2.057L44.344.166H42.51zM1.833 9.753H0L3.445.166h1.86l3.444 9.585H6.916l-.825-2.457H2.659l-.826 2.458v.001zm2.536-7.927c-.009.04-.225.957-.413 1.485l-.869 2.565h2.562L4.78 3.312c-.18-.535-.38-1.477-.385-1.486h-.026zm14.082 4.971c.083.333.142.671.178 1.012h.03c.035-.34.09-.678.165-1.012l1.61-6.633h1.833l-2.523 9.588h-2.052l-1.5-5.67a11.52 11.52 0 0 1-.249-1.256h-.029c-.058.423-.14.842-.248 1.255l-1.5 5.671h-2.055L9.66.164h1.833l1.543 6.634c.076.334.131.671.165 1.011h.03c.035-.34.095-.678.178-1.01L15.171.163h1.541l1.74 6.633zm69.786-.161a1.65 1.65 0 0 1-1.661-1.677 1.672 1.672 0 0 1 3.344 0 1.663 1.663 0 0 1-1.683 1.677zm0-3.153a1.45 1.45 0 0 0-1.45 1.48 1.45 1.45 0 0 0 1.45 1.48 1.443 1.443 0 0 0 1.47-1.48 1.458 1.458 0 0 0-1.47-1.48zm-.339 2.4h-.2V4.031h.626a.52.52 0 0 1 .549.538.483.483 0 0 1-.364.5v.01l.063.1.372.705h-.231l-.4-.773h-.415v.772zm0-1.67v.718h.4a.335.335 0 0 0 .358-.364.33.33 0 0 0-.36-.349l-.398-.005z" fill="#1C1C1C"/></svg>