<svg width="48" height="48" fill="none" xmlns="http://www.w3.org/2000/svg"><path fill-rule="evenodd" clip-rule="evenodd" d="M39.969 14.318c.02.043.031.086.031.129v16.614c0 .858-.208 1.674-.625 2.447-.417.772-1.042 1.159-1.875 1.159h-26c-.833 0-1.625-.387-2.375-1.16C8.375 32.736 8 31.92 8 31.062V14.447c0-.043.01-.086.031-.129a.771.771 0 010-.434c.042-.14.115-.274.219-.403a.527.527 0 00.063-.08.237.237 0 01.093-.08c.313-.43.755-.758 1.328-.983A4.783 4.783 0 0111.5 12h26c.667 0 1.203.145 1.61.435.406.29.671.724.796 1.304a.826.826 0 01.078.273c.01.097.006.199-.015.306zm-28.938-.257c-.166 0-.333.01-.5.032L24 25.169 37.5 14.06H11.031zM37.5 32.606c.27 0 .422-.188.453-.563.031-.376.047-.703.047-.982V16.314l-13.344 10.98a1.26 1.26 0 01-.312.193.895.895 0 01-.344.064.894.894 0 01-.344-.064 1.238 1.238 0 01-.312-.193L10 16.314v14.747c0 .279.182.606.547.982.364.375.682.563.953.563h26z" fill="#3D3D3D"/></svg>