<svg width="48" height="48" fill="none" xmlns="http://www.w3.org/2000/svg"><path fill-rule="evenodd" clip-rule="evenodd" d="M24 40c8.837 0 16-7.163 16-16S32.837 8 24 8 8 15.163 8 24s7.163 16 16 16zm-10.732-7.746A13.48 13.48 0 0110.461 24c0-7.477 6.062-13.539 13.539-13.539 7.477 0 13.538 6.062 13.538 13.539a13.48 13.48 0 01-2.807 8.255c-.803-.728-1.83-1.255-3.18-1.741a33.21 33.21 0 00-.669-.232l-.63-.21c-1.534-.518-2.076-.846-2.202-1.262a.856.856 0 01-.021-.09c-.055-.289-.042-.604.07-.865a1.1 1.1 0 01.318-.418c1.7-1.535 2.557-3.265 2.557-5.625 0-4.11-3.216-7.248-6.974-7.248-3.784 0-6.974 3.084-6.974 7.248 0 2.353.835 4.033 2.474 5.577.211.178.317.308.39.445a1.258 1.258 0 01.085.898c-.003.011-.003.014-.001.008-.122.432-.625.742-2.042 1.226l-.727.245a35.21 35.21 0 00-.78.274c-1.327.49-2.354 1.032-3.157 1.769zm1.676 1.81A13.489 13.489 0 0024 37.538a13.49 13.49 0 009.054-3.473c-.537-.476-1.281-.855-2.337-1.235a30.598 30.598 0 00-.62-.214l-.632-.212c-2.29-.773-3.321-1.397-3.765-2.86a3.137 3.137 0 01-.09-.366c-.137-.728-.106-1.517.227-2.293a3.49 3.49 0 01.965-1.306c1.174-1.06 1.71-2.144 1.71-3.767 0-2.737-2.1-4.786-4.512-4.786-2.443 0-4.513 2-4.513 4.787 0 1.62.525 2.677 1.642 3.732.401.332.714.716.937 1.14.447.848.498 1.723.325 2.523a1.862 1.862 0 01-.074.28c-.388 1.438-1.39 2.056-3.59 2.807l-.73.247c-.285.096-.507.174-.719.252-1.043.386-1.792.78-2.334 1.27z" fill="#3D3D3D"/></svg>