<svg width="525" height="233" fill="none" xmlns="http://www.w3.org/2000/svg"><mask id="a" fill="#fff"><path fill-rule="evenodd" clip-rule="evenodd" d="M136.51 227.608v-35.134h24.82v-33.866h-24.82V27.733H83.548L0 159.194v33.28h96.055v35.134h40.455zm-39.673-69H42.604v-1.561l52.67-83.25h1.563v84.811zM261.914 233c50.324 0 80.713-38.257 80.811-104.134C342.823 63.476 312.042 26 261.914 26c-50.227 0-80.714 37.38-80.812 102.866-.195 65.681 30.39 104.036 80.812 104.134zm0-35.037c-22.964 0-37.817-23.032-37.719-69.097.098-45.382 14.853-68.22 37.719-68.22 22.768 0 37.621 22.838 37.621 68.22.097 46.065-14.756 69.097-37.621 69.097zm238.266 30.645v-35.134H525v-33.866h-24.82V28.733h-52.962L363.67 160.194v33.28h96.055v35.134h40.455zm-39.673-69h-54.232v-1.561l52.669-83.25h1.563v84.811z"/></mask><path fill-rule="evenodd" clip-rule="evenodd" d="M136.51 227.608v-35.134h24.82v-33.866h-24.82V27.733H83.548L0 159.194v33.28h96.055v35.134h40.455zm-39.673-69H42.604v-1.561l52.67-83.25h1.563v84.811zM261.914 233c50.324 0 80.713-38.257 80.811-104.134C342.823 63.476 312.042 26 261.914 26c-50.227 0-80.714 37.38-80.812 102.866-.195 65.681 30.39 104.036 80.812 104.134zm0-35.037c-22.964 0-37.817-23.032-37.719-69.097.098-45.382 14.853-68.22 37.719-68.22 22.768 0 37.621 22.838 37.621 68.22.097 46.065-14.756 69.097-37.621 69.097zm238.266 30.645v-35.134H525v-33.866h-24.82V28.733h-52.962L363.67 160.194v33.28h96.055v35.134h40.455zm-39.673-69h-54.232v-1.561l52.669-83.25h1.563v84.811z" fill="#fff"/><path d="M136.51 227.608v3h3v-3h-3zm0-35.134v-3h-3v3h3zm24.82 0v3h3v-3h-3zm0-33.866h3v-3h-3v3zm-24.82 0h-3v3h3v-3zm0-130.875h3v-3h-3v3zm-52.962 0v-3H81.9l-.884 1.39 2.531 1.61zM0 159.194l-2.532-1.609-.468.736v.873h3zm0 33.28h-3v3h3v-3zm96.055 0h3v-3h-3v3zm0 35.134h-3v3h3v-3zm.782-69v3h3v-3h-3zm-54.233 0h-3v3h3v-3zm0-1.561l-2.535-1.604-.465.734v.87h3zm52.67-83.25v-3H93.62l-.883 1.397 2.535 1.604zm1.563 0h3v-3h-3v3zM261.914 233l-.006 3h.006v-3zm80.811-104.134l-3-.005 3 .005zm-161.623 0l3 .009v-.005l-3-.004zm43.093 0l-3-.007 3 .007zm75.34 0h-3v.006l3-.006zm200.645 99.742v3h3v-3h-3zm0-35.134v-3h-3v3h3zm24.82 0v3h3v-3h-3zm0-33.866h3v-3h-3v3zm-24.82 0h-3v3h3v-3zm0-130.875h3v-3h-3v3zm-52.962 0v-3h-1.648l-.884 1.39 2.532 1.61zM363.67 160.194l-2.532-1.609-.468.736v.873h3zm0 33.28h-3v3h3v-3zm96.055 0h3v-3h-3v3zm0 35.134h-3v3h3v-3zm.782-69v3h3v-3h-3zm-54.232 0h-3v3h3v-3zm0-1.561l-2.536-1.604-.464.734v.87h3zm52.669-83.25v-3h-1.652l-.883 1.397 2.535 1.604zm1.563 0h3v-3h-3v3zM139.51 227.609v-35.134h-6v35.134h6zm-3-32.134h24.82v-6h-24.82v6zm27.82-3v-33.866h-6v33.866h6zm-3-36.866h-24.82v6h24.82v-6zm-21.82 3V27.733h-6v130.875h6zm-3-133.875H83.548v6h52.962v-6zm-55.494 1.39L-2.532 157.585l5.064 3.218L86.079 29.342l-5.063-3.218zM-3 159.195v33.28h6v-33.28h-6zm3 36.28h96.055v-6H0v6zm93.055-3v35.134h6v-35.134h-6zm3 38.134h40.455v-6H96.055v6zm.782-75H42.604v6h54.233v-6zm-51.233 3v-1.561h-6v1.561h6zm-.464.043l52.669-83.25-5.07-3.207-52.67 83.249 5.07 3.208zm50.133-81.853h1.564v-6h-1.564v6zm-1.436-3v84.81h6v-84.81h-6zM261.914 236c26.001 0 47.086-9.926 61.605-28.517 14.444-18.495 22.157-45.261 22.206-78.613l-6-.009c-.048 32.525-7.579 57.827-20.935 74.929-13.282 17.007-32.553 26.21-56.876 26.21v6zm83.811-107.13c.05-33.122-7.717-59.582-22.223-77.825C308.927 32.715 287.796 23 261.914 23v6c24.246 0 43.57 9.024 56.892 25.78 13.392 16.842 20.967 41.815 20.919 74.081l6 .009zM261.914 23c-25.929 0-47.014 9.688-61.554 28.01-14.468 18.231-22.208 44.689-22.258 77.851l6 .009c.048-32.324 7.601-57.3 20.958-74.13C218.344 38.001 237.616 29 261.914 29v-6zm-83.812 105.857c-.099 33.263 7.591 60.008 22.061 78.518 14.542 18.601 35.698 28.575 61.745 28.625l.012-6c-24.375-.047-43.723-9.3-57.03-26.321-13.379-17.113-20.884-42.386-20.788-74.804l-6-.018zm83.812 66.106c-10.265 0-18.791-5.052-24.902-15.761-6.203-10.871-9.865-27.546-9.817-50.33l-6-.013c-.049 23.282 3.666 41.155 10.606 53.317 7.032 12.323 17.414 18.787 30.113 18.787v-6zm-34.719-66.091c.048-22.441 3.732-38.897 9.921-49.636 6.096-10.579 14.575-15.59 24.798-15.59v-6c-12.644 0-22.975 6.408-29.997 18.594-6.93 12.025-10.672 29.678-10.722 52.619l6 .013zm34.719-65.226c10.171 0 18.651 5.008 24.749 15.59 6.188 10.738 9.872 27.193 9.872 49.63h6c0-22.946-3.743-40.6-10.674-52.626-7.02-12.183-17.35-18.594-29.947-18.594v6zm34.621 65.226c.048 22.783-3.614 39.46-9.806 50.332-6.102 10.712-14.605 15.759-24.815 15.759v6c12.655 0 23.011-6.469 30.028-18.789 6.926-12.161 10.642-30.033 10.593-53.315l-6 .013zm206.645 99.736v-35.134h-6v35.134h6zm-3-32.134H525v-6h-24.82v6zm27.82-3v-33.866h-6v33.866h6zm-3-36.866h-24.82v6H525v-6zm-21.82 3V28.733h-6v130.875h6zm-3-133.875h-52.962v6h52.962v-6zm-55.494 1.39l-83.548 131.462 5.064 3.218L449.75 30.342l-5.064-3.218zM360.67 160.195v33.28h6v-33.28h-6zm3 36.28h96.055v-6H363.67v6zm93.055-3v35.134h6v-35.134h-6zm3 38.134h40.455v-6h-40.455v6zm.782-75h-54.232v6h54.232v-6zm-51.232 3v-1.561h-6v1.561h6zm-.465.043l52.669-83.25-5.07-3.207-52.67 83.249 5.071 3.208zm50.134-81.853h1.563v-6h-1.563v6zm-1.437-3v84.81h6v-84.81h-6z" fill="#3D3D3D" mask="url(#a)"/><path fill-rule="evenodd" clip-rule="evenodd" d="M261.914 207c50.324 0 80.713-38.257 80.811-104.134C342.823 37.476 312.042 0 261.914 0c-50.227 0-80.714 37.38-80.812 102.866-.195 65.681 30.39 104.036 80.812 104.134zM136.51 167.474v35.134H96.055v-35.134H0v-33.28L83.547 2.733h52.963v130.875h24.82v33.866h-24.82zm-93.906-33.866h54.233v-84.81h-1.564l-52.669 83.249v1.561zm181.591-30.742c-.098 46.065 14.755 69.097 37.719 69.097 22.865 0 37.718-23.032 37.621-69.097 0-45.382-14.853-68.22-37.621-68.22-22.866 0-37.621 22.838-37.719 68.22zm275.985 99.742v-35.134H525v-33.866h-24.82V2.733h-52.962L363.67 134.194v33.28h96.055v35.134h40.455zm-93.905-69h54.232v-84.81h-1.563l-52.669 83.249v1.561z" fill="#3D3D3D"/></svg>