<svg width="48" height="48" fill="none" xmlns="http://www.w3.org/2000/svg"><path fill-rule="evenodd" clip-rule="evenodd" d="M24 48c13.255 0 24-10.745 24-24S37.255 0 24 0 0 10.745 0 24s10.745 24 24 24z" fill="#FF7171"/><path fill-rule="evenodd" clip-rule="evenodd" d="M15.644 18.875a3.23 3.23 0 100-6.461 3.23 3.23 0 000 6.46zm0 8.355a3.23 3.23 0 100-6.46 3.23 3.23 0 000 6.46zm19.942-11.586a3.23 3.23 0 11-6.46 0 3.23 3.23 0 016.46 0zM24 18.874a3.23 3.23 0 100-6.46 3.23 3.23 0 000 6.46zM27.661 24a3.23 3.23 0 11-6.46 0 3.23 3.23 0 016.46 0zM15.644 35.586a3.23 3.23 0 100-6.46 3.23 3.23 0 000 6.46zm19.942-3.23a3.23 3.23 0 11-6.46 0 3.23 3.23 0 016.46 0z" fill="#fff"/></svg>