<svg width="572" height="555" fill="none" xmlns="http://www.w3.org/2000/svg"><path fill-rule="evenodd" clip-rule="evenodd" d="M267 534c147.46 0 267-119.54 267-267C534 119.54 414.46 0 267 0 119.54 0 0 119.54 0 267c0 147.46 119.54 267 267 267z" fill="#FFF0AE"/><path d="M528 288c0 144.146-116.854 261-261 261C122.854 549 6 432.146 6 288 6 143.854 122.854 27 267 27c144.146 0 261 116.854 261 261z" fill="#fff" stroke="#3D3D3D" stroke-width="12"/><path fill-rule="evenodd" clip-rule="evenodd" d="M278.5 554C422.37 554 539 437.37 539 293.5S422.37 33 278.5 33 18 149.63 18 293.5 134.63 554 278.5 554z" fill="#FF7171"/><path fill-rule="evenodd" clip-rule="evenodd" d="M285 323c19.33 0 35-15.446 35-34.5 0-19.054-15.67-34.5-35-34.5s-35 15.446-35 34.5c0 19.054 15.67 34.5 35 34.5z" fill="#fff"/><path d="M240 194c0 24.853-20.147 45-45 45s-45-20.147-45-45 20.147-45 45-45 45 20.147 45 45z" stroke="#FFF0AE" stroke-width="8"/><path fill-rule="evenodd" clip-rule="evenodd" d="M164.574 203.448c15.827 11.048 20.736 32.745 10.782 49.987-9.955 17.241-31.199 23.839-48.681 15.655.873.61 1.78 1.187 2.719 1.729 17.959 10.369 41.033 4.027 51.536-14.166 10.504-18.192 4.459-41.346-13.5-51.715a37.878 37.878 0 00-2.856-1.49z" fill="#fff"/><path fill-rule="evenodd" clip-rule="evenodd" d="M147 347.068c15.049 56 72.55 89.295 128.433 74.364 55.883-14.93 88.985-72.431 73.936-128.432L147 347.068z" fill="#FFF0AE"/><mask id="a" fill="#fff"><path fill-rule="evenodd" clip-rule="evenodd" d="M162 347.068c14.976 56 72.198 89.295 127.81 74.364 55.611-14.93 88.553-72.431 73.577-128.432L162 347.068z"/></mask><path fill-rule="evenodd" clip-rule="evenodd" d="M162 347.068c14.976 56 72.198 89.295 127.81 74.364 55.611-14.93 88.553-72.431 73.577-128.432L162 347.068z" fill="#FFF0AE"/><path d="M162 347.068l-2.334-8.693-8.683 2.332 2.323 8.686 8.694-2.325zm127.81 74.364l2.333 8.692-2.333-8.692zM363.387 293l8.694-2.325-2.327-8.703-8.701 2.336 2.334 8.692zm-210.081 56.393c16.246 60.75 78.367 96.966 138.837 80.731l-4.667-17.384c-50.752 13.626-103.076-16.747-116.782-67.998l-17.388 4.651zm138.837 80.731c60.464-16.233 96.183-78.705 79.938-139.449l-17.389 4.65c13.708 51.257-16.457 103.787-67.216 117.415l4.667 17.384zm68.91-145.816l-201.387 54.067 4.668 17.385 201.386-54.068-4.667-17.384z" fill="#3D3D3D" mask="url(#a)"/><path d="M530.098 189.227c10.039-5.797 22.877-2.357 28.673 7.683 5.797 10.04 2.357 22.878-7.683 28.675L342.902 345.773c-10.039 5.797-22.877 2.357-28.673-7.683-5.797-10.04-2.357-22.878 7.683-28.675l208.186-120.188z" stroke="#fff" stroke-width="4"/><path fill-rule="evenodd" clip-rule="evenodd" d="M218.476 246.389l25.578 25.552-25.578 25.551-25.578-25.551 25.578-25.552z" fill="#fff"/></svg>