<svg width="340" height="678" fill="none" xmlns="http://www.w3.org/2000/svg"><path opacity=".071" d="M170 677.735c86.376 0 156.397-11.27 156.397-25.172 0-13.902-70.021-25.172-156.397-25.172-86.375 0-156.397 11.27-156.397 25.172 0 13.902 70.022 25.172 156.397 25.172z" fill="#3D3D3D"/><path d="M199.159 350.894h-58.317c-52.751 0-95.429-42.925-95.429-95.655V112.42h249.175v142.819c0 52.73-42.678 95.655-95.429 95.655z" fill="#fff"/><path d="M104.393 258.684V112.42h-58.98v142.819c0 52.73 42.678 95.655 95.429 95.655h34.725c-40.955-10.732-71.174-47.96-71.174-92.21z" fill="#fff"/><path clip-rule="evenodd" d="M199.159 350.894h-58.317c-52.751 0-95.429-42.925-95.429-95.655V112.42h249.175v142.819c0 52.73-42.678 95.655-95.429 95.655z" stroke="#3D3D3D" stroke-width="6" stroke-linecap="round" stroke-linejoin="round"/><path d="M277.887 23.39c-71.041-15.633-144.733-15.633-215.907 0-9.675 2.12-16.7 10.731-16.7 20.668v68.097a502.19 502.19 0 00249.175 0V44.058c.132-9.804-6.76-18.416-16.568-20.668z" fill="#fff"/><path d="M277.888 23.39l-7.158-1.59v95.92a387.692 387.692 0 0023.858-5.565V44.058c0-9.804-6.892-18.416-16.7-20.668zM104.393 50.947c0-13.381 3.976-25.835 10.868-36.301a510.786 510.786 0 00-53.148 8.744c-9.675 2.12-16.7 10.731-16.7 20.668v68.097c19.483 5.035 39.232 8.744 58.98 11.394V50.947zM305.19 240.931h-10.603v-71.542h10.603c8.748 0 15.905 7.552 15.905 16.296v39.745c0 8.744-7.157 15.501-15.905 15.501z" fill="#fff"/><path clip-rule="evenodd" d="M305.19 240.931h-10.603v-71.542h10.603c8.748 0 15.905 7.552 15.905 16.296v39.745c0 8.744-7.157 15.501-15.905 15.501z" stroke="#3D3D3D" stroke-width="6" stroke-linecap="round" stroke-linejoin="round"/><path d="M34.81 240.931h10.602v-71.542H34.81c-8.748 0-15.905 7.552-15.905 16.296v39.745c0 8.744 7.157 15.501 15.905 15.501z" fill="#fff"/><path clip-rule="evenodd" d="M34.81 240.931h10.602v-71.542H34.81c-8.748 0-15.905 7.552-15.905 16.296v39.745c0 8.744 7.157 15.501 15.905 15.501z" stroke="#3D3D3D" stroke-width="6" stroke-linecap="round" stroke-linejoin="round"/><path d="M161.65 311.546c1.856-14.971 15.508-25.703 30.485-23.848 3.711.398 7.289 1.723 10.338 3.445" stroke="#3D3D3D" stroke-width="6" stroke-linecap="round" stroke-linejoin="round"/><path d="M94.452 512.923V632.16h71.572v-62.665c0-3.71 3.048-6.625 6.627-6.625 3.711 0 6.627 2.915 6.627 6.625v62.665h71.571V512.923H94.452z" fill="#3D3D3D"/><path clip-rule="evenodd" d="M94.452 512.923V632.16h71.572v-62.665c0-3.71 3.048-6.625 6.627-6.625v0c3.711 0 6.627 2.915 6.627 6.625v62.665h71.571V512.923H94.452z" stroke="#3D3D3D" stroke-width="6" stroke-linecap="round" stroke-linejoin="round"/><path d="M274.442 563.4c13.542 0 24.52-10.973 24.52-24.51 0-13.536-10.978-24.509-24.52-24.509s-24.52 10.973-24.52 24.509c0 13.537 10.978 24.51 24.52 24.51z" fill="#fff"/><path clip-rule="evenodd" d="M274.442 563.4c13.542 0 24.52-10.973 24.52-24.51 0-13.536-10.978-24.509-24.52-24.509s-24.52 10.973-24.52 24.509c0 13.537 10.978 24.51 24.52 24.51z" stroke="#3D3D3D" stroke-width="6" stroke-linecap="round" stroke-linejoin="round"/><path d="M121.491 251.53c23.424 0 42.413-18.981 42.413-42.396 0-23.414-18.989-42.395-42.413-42.395-23.424 0-42.413 18.981-42.413 42.395 0 23.415 18.989 42.396 42.413 42.396z" fill="#fff"/><path clip-rule="evenodd" d="M121.491 251.53c23.424 0 42.413-18.981 42.413-42.396 0-23.414-18.989-42.395-42.413-42.395-23.424 0-42.413 18.981-42.413 42.395 0 23.415 18.989 42.396 42.413 42.396z" stroke="#3D3D3D" stroke-width="6" stroke-linecap="round" stroke-linejoin="round"/><path d="M143.095 229.007c10.248 0 18.555-8.304 18.555-18.548 0-10.243-8.307-18.548-18.555-18.548s-18.556 8.305-18.556 18.548c0 10.244 8.308 18.548 18.556 18.548z" fill="#3D3D3D"/><path d="M149.722 217.084a6.626 6.626 0 100-13.249 6.626 6.626 0 100 13.249zm16.302 415.076H94.452v10.599c0 4.372 3.579 7.949 7.953 7.949h55.666c4.374 0 7.953-3.577 7.953-7.949V632.16zm21.206 18.548h55.666c4.374 0 7.953-3.577 7.953-7.949V632.16h-71.572v10.599c0 4.372 3.579 7.949 7.953 7.949z" fill="#fff"/><path clip-rule="evenodd" d="M166.024 632.16H94.452v10.599c0 4.372 3.579 7.949 7.953 7.949h55.666c4.374 0 7.953-3.577 7.953-7.949V632.16zm21.206 18.548h55.666c4.374 0 7.953-3.577 7.953-7.949V632.16h-71.572v10.599c0 4.372 3.579 7.949 7.953 7.949z" stroke="#3D3D3D" stroke-width="6" stroke-linecap="round" stroke-linejoin="round"/><path d="M71.126 565.785c13.688 0 24.785-11.092 24.785-24.775 0-13.683-11.097-24.775-24.785-24.775-13.689 0-24.785 11.092-24.785 24.775 0 13.683 11.096 24.775 24.785 24.775z" fill="#fff"/><path clip-rule="evenodd" d="M71.126 565.785c13.688 0 24.785-11.092 24.785-24.775 0-13.683-11.097-24.775-24.785-24.775-13.689 0-24.785 11.092-24.785 24.775 0 13.683 11.096 24.775 24.785 24.775z" stroke="#3D3D3D" stroke-width="6" stroke-linecap="round" stroke-linejoin="round"/><path d="M299.094 538.36l-10.073-115.129c-1.856-20.668-18.291-36.566-38.172-39.083v-.133a630.383 630.383 0 00-156.397 0v.133c-20.013 2.384-36.315 18.548-38.171 39.348L46.208 538.625l47.582 4.107 1.325-15.5a618.827 618.827 0 00154.939 0l1.325 15.368 47.715-4.24z" fill="#fff"/><path clip-rule="evenodd" d="M299.094 538.36l-10.073-115.129c-1.856-20.668-18.291-36.566-38.172-39.083v-.133a630.383 630.383 0 00-156.397 0v.133c-20.013 2.384-36.315 18.548-38.171 39.348L46.208 538.625l47.582 4.107 1.325-15.5c48.642 7.816 103.381 8.214 154.939 0l1.325 15.368 47.715-4.24z" stroke="#3D3D3D" stroke-width="6" stroke-linecap="round" stroke-linejoin="round"/><path d="M93.79 542.733l9.013-103.074m147.383 87.573l-7.687-87.573" stroke="#3D3D3D" stroke-width="6" stroke-linecap="round" stroke-linejoin="round"/><path d="M280.273 13.056C244.09 5.107 207.111 1 170 1 133.021 1 95.91 4.975 59.727 13.056 45.28 16.236 34.81 29.352 34.81 44.058v24.51l7.952 1.324c9.808 1.59 19.748 2.915 29.556 4.24l7.82-25.57h10.338l1.458 27.69c9.013.927 18.158 1.59 27.303 2.12l3.049-29.81 4.108 30.34c11.531.662 23.062 1.06 34.593 1.06l5.037-28.75L170 80.094l19.218-4.637 8.218-39.48 23.327 42.394c9.675-.662 19.351-1.324 29.026-2.384v-30.87l6.892-1.324 11.398 30.074a401.703 401.703 0 0017.628-2.385c-.663-13.91-1.723-39.878.398-35.77 2.12 4.106 9.278 23.45 12.989 33.65l5.964-.927v-24.51c.133-14.573-10.338-27.69-24.785-30.869z" fill="#3D3D3D"/><path clip-rule="evenodd" d="M280.273 13.056C244.09 5.107 207.111 1 170 1 133.021 1 95.91 4.975 59.727 13.056 45.28 16.236 34.81 29.352 34.81 44.058v24.51l7.952 1.324c9.808 1.59 19.748 2.915 29.556 4.24l7.82-25.57h10.338l1.458 27.69c9.013.927 18.158 1.59 27.303 2.12l3.049-29.81 4.108 30.34c11.531.662 23.062 1.06 34.593 1.06l5.037-28.75L170 80.094l19.218-4.637 8.218-39.48 23.327 42.394c9.675-.662 19.351-1.324 29.026-2.384v-30.87l6.892-1.324 11.398 30.074a401.703 401.703 0 0017.628-2.385c-.663-13.91-1.723-39.878.398-35.77 2.12 4.106 9.278 23.45 12.989 33.65l5.964-.927v-24.51c.133-14.573-10.338-27.69-24.785-30.869z" stroke="#3D3D3D" stroke-width="2" stroke-linecap="round" stroke-linejoin="round"/><path clip-rule="evenodd" d="M277.887 25.775c-71.041-15.368-144.733-15.368-215.907 0-9.675 2.12-16.7 10.466-16.7 20.27v66.508a511.621 511.621 0 00249.175 0V46.045c.132-9.671-6.76-18.15-16.568-20.27z" stroke="#3D3D3D" stroke-width="6" stroke-linecap="round" stroke-linejoin="round"/><path d="M85.838 141.567h-.795c-5.567 0-10.206-4.505-10.206-10.201v-21.993c0-5.564 4.506-10.201 10.206-10.201h.795c5.566 0 10.205 4.504 10.205 10.201v21.993c0 5.696-4.639 10.201-10.205 10.201z" fill="#fff"/><path clip-rule="evenodd" d="M85.838 141.567h-.795c-5.567 0-10.206-4.505-10.206-10.201v-21.993c0-5.564 4.506-10.201 10.206-10.201h.795c5.566 0 10.205 4.504 10.205 10.201v21.993c0 5.696-4.639 10.201-10.205 10.201z" stroke="#3D3D3D" stroke-width="6" stroke-linecap="round" stroke-linejoin="round"/><path d="M138.19 145.806h-.795c-5.567 0-10.206-4.504-10.206-10.201v-21.992c0-5.565 4.507-10.202 10.206-10.202h.795c5.567 0 10.206 4.505 10.206 10.202v21.992c0 5.697-4.639 10.201-10.206 10.201z" fill="#fff"/><path clip-rule="evenodd" d="M138.19 145.806h-.795c-5.567 0-10.206-4.504-10.206-10.201v-21.992c0-5.565 4.507-10.202 10.206-10.202h.795c5.567 0 10.206 4.505 10.206 10.202v21.992c0 5.697-4.639 10.201-10.206 10.201z" stroke="#3D3D3D" stroke-width="6" stroke-linecap="round" stroke-linejoin="round"/><path d="M192.399 143.554h-.795c-5.567 0-10.206-4.504-10.206-10.201V111.36c0-5.564 4.507-10.201 10.206-10.201h.795c5.567 0 10.206 4.504 10.206 10.201v21.993c0 5.697-4.639 10.201-10.206 10.201z" fill="#fff"/><path clip-rule="evenodd" d="M192.399 143.554h-.795c-5.567 0-10.206-4.504-10.206-10.201V111.36c0-5.564 4.507-10.201 10.206-10.201h.795c5.567 0 10.206 4.504 10.206 10.201v21.993c0 5.697-4.639 10.201-10.206 10.201z" stroke="#3D3D3D" stroke-width="6" stroke-linecap="round" stroke-linejoin="round"/><path d="M248.728 143.554h-.795c-5.567 0-10.205-4.504-10.205-10.201V111.36c0-5.564 4.506-10.201 10.205-10.201h.795c5.567 0 10.206 4.504 10.206 10.201v21.993c0 5.697-4.639 10.201-10.206 10.201z" fill="#fff"/><path clip-rule="evenodd" d="M248.728 143.554h-.795c-5.567 0-10.205-4.504-10.205-10.201V111.36c0-5.564 4.506-10.201 10.205-10.201h.795c5.567 0 10.206 4.504 10.206 10.201v21.993c0 5.697-4.639 10.201-10.206 10.201z" stroke="#3D3D3D" stroke-width="6" stroke-linecap="round" stroke-linejoin="round"/><path stroke="#3D3D3D" stroke-width="6" stroke-linecap="round" stroke-linejoin="round" d="M294.587 104.471h21.206v15.898h-21.206z"/><path clip-rule="evenodd" d="M328.518 133.618h-4.242c-4.638 0-8.482-3.842-8.482-8.479V99.702c0-4.637 3.844-8.48 8.482-8.48h4.242c4.639 0 8.482 3.843 8.482 8.48v25.437c0 4.637-3.843 8.479-8.482 8.479zM45.413 120.369H24.207v-15.898h21.206v15.898zm-33.931 13.249h4.242c4.639 0 8.482-3.842 8.482-8.479V99.702c0-4.637-3.843-8.48-8.482-8.48h-4.242C6.845 91.222 3 95.066 3 99.703v25.437c0 4.637 3.844 8.479 8.482 8.479z" stroke="#3D3D3D" stroke-width="6" stroke-linecap="round" stroke-linejoin="round"/><path d="M179.543 398.588h-13.916c-10.736 0-19.616-8.744-19.616-19.607v-28.087h53.016v28.087c.132 10.863-8.615 19.607-19.484 19.607z" fill="#fff"/><path clip-rule="evenodd" d="M179.543 398.588h-13.916c-10.736 0-19.616-8.744-19.616-19.607v-28.087h53.016v28.087c.132 10.863-8.615 19.607-19.484 19.607z" stroke="#3D3D3D" stroke-width="6" stroke-linecap="round" stroke-linejoin="round"/><path d="M215.593 240.931c19.764 0 35.786-16.015 35.786-35.771s-16.022-35.771-35.786-35.771c-19.764 0-35.785 16.015-35.785 35.771s16.021 35.771 35.785 35.771z" fill="#fff"/><path clip-rule="evenodd" d="M215.593 240.931c19.764 0 35.786-16.015 35.786-35.771s-16.022-35.771-35.786-35.771c-19.764 0-35.785 16.015-35.785 35.771s16.021 35.771 35.785 35.771z" stroke="#3D3D3D" stroke-width="6" stroke-linecap="round" stroke-linejoin="round"/><path d="M197.17 225.033c8.052 0 14.58-6.525 14.58-14.574 0-8.048-6.528-14.573-14.58-14.573s-14.579 6.525-14.579 14.573c0 8.049 6.527 14.574 14.579 14.574z" fill="#3D3D3D"/><path d="M192.531 214.434a4.638 4.638 0 10.002-9.276 4.638 4.638 0 00-.002 9.276z" fill="#fff"/></svg>