<svg width="1250" height="388" fill="none" xmlns="http://www.w3.org/2000/svg"><path fill-rule="evenodd" clip-rule="evenodd" d="M133.427 20.693c-5.717 0-10.351-4.632-10.351-10.346C123.076 4.632 127.71 0 133.427 0c5.713 0 10.35 4.632 10.35 10.347 0 5.714-4.637 10.346-10.35 10.346zm0 82.774c-5.717 0-10.351-4.633-10.351-10.347 0-5.714 4.634-10.347 10.351-10.347 5.713 0 10.35 4.633 10.35 10.347 0 5.714-4.637 10.347-10.35 10.347zm0 82.773c-5.717 0-10.351-4.632-10.351-10.347 0-5.714 4.634-10.346 10.351-10.346 5.713 0 10.35 4.632 10.35 10.346 0 5.715-4.637 10.347-10.35 10.347zm0 82.773c-5.717 0-10.351-4.63-10.351-10.345 0-5.715 4.634-10.348 10.351-10.348 5.713 0 10.35 4.633 10.35 10.348 0 5.715-4.637 10.345-10.35 10.345zm0 82.774c-5.717 0-10.351-4.634-10.351-10.345 0-5.716 4.634-10.349 10.351-10.349 5.713 0 10.35 4.633 10.35 10.349 0 5.711-4.637 10.345-10.35 10.345zM10.513 20.693c-5.716 0-10.35-4.632-10.35-10.346C.163 4.632 4.797 0 10.513 0c5.713 0 10.35 4.632 10.35 10.347 0 5.714-4.637 10.346-10.35 10.346zm0 82.774c-5.716 0-10.35-4.633-10.35-10.347 0-5.714 4.634-10.347 10.35-10.347 5.713 0 10.35 4.633 10.35 10.347 0 5.714-4.637 10.347-10.35 10.347zm0 82.773c-5.716 0-10.35-4.632-10.35-10.347 0-5.714 4.634-10.346 10.35-10.346 5.713 0 10.35 4.632 10.35 10.346 0 5.715-4.637 10.347-10.35 10.347zm0 82.773c-5.716 0-10.35-4.63-10.35-10.345 0-5.715 4.634-10.348 10.35-10.348 5.713 0 10.35 4.633 10.35 10.348 0 5.715-4.637 10.345-10.35 10.345zm0 82.774c-5.716 0-10.35-4.634-10.35-10.345 0-5.716 4.634-10.349 10.35-10.349 5.713 0 10.35 4.633 10.35 10.349 0 5.711-4.637 10.345-10.35 10.345zM256.34 20.693c-5.713 0-10.35-4.632-10.35-10.346C245.99 4.632 250.627 0 256.34 0c5.717 0 10.351 4.632 10.351 10.347 0 5.714-4.634 10.346-10.351 10.346zm0 82.774c-5.713 0-10.35-4.633-10.35-10.347 0-5.714 4.637-10.347 10.35-10.347 5.717 0 10.351 4.633 10.351 10.347 0 5.714-4.634 10.347-10.351 10.347zm0 82.773c-5.713 0-10.35-4.632-10.35-10.347 0-5.714 4.637-10.346 10.35-10.346 5.717 0 10.351 4.632 10.351 10.346 0 5.715-4.634 10.347-10.351 10.347zm0 82.773c-5.713 0-10.35-4.63-10.35-10.345 0-5.715 4.637-10.348 10.35-10.348 5.717 0 10.351 4.633 10.351 10.348 0 5.715-4.634 10.345-10.351 10.345zm0 82.774c-5.713 0-10.35-4.634-10.35-10.345 0-5.716 4.637-10.349 10.35-10.349 5.717 0 10.351 4.633 10.351 10.349 0 5.711-4.634 10.345-10.351 10.345zM625.081 20.693c-5.716 0-10.35-4.632-10.35-10.346 0-5.715 4.634-10.347 10.35-10.347 5.714 0 10.351 4.632 10.351 10.347 0 5.714-4.637 10.346-10.351 10.346zm0 82.774c-5.716 0-10.35-4.633-10.35-10.347 0-5.714 4.634-10.347 10.35-10.347 5.714 0 10.351 4.633 10.351 10.347 0 5.714-4.637 10.347-10.351 10.347zm0 82.773c-5.716 0-10.35-4.632-10.35-10.347 0-5.714 4.634-10.346 10.35-10.346 5.714 0 10.351 4.632 10.351 10.346 0 5.715-4.637 10.347-10.351 10.347zm0 82.773c-5.716 0-10.35-4.63-10.35-10.345 0-5.715 4.634-10.348 10.35-10.348 5.714 0 10.351 4.633 10.351 10.348 0 5.715-4.637 10.345-10.351 10.345zm0 82.774c-5.716 0-10.35-4.634-10.35-10.345 0-5.716 4.634-10.349 10.35-10.349 5.714 0 10.351 4.633 10.351 10.349 0 5.711-4.637 10.345-10.351 10.345zM502.168 20.693c-5.717 0-10.351-4.632-10.351-10.346C491.817 4.632 496.451 0 502.168 0c5.713 0 10.35 4.632 10.35 10.347 0 5.714-4.637 10.346-10.35 10.346zm0 165.547c-5.717 0-10.351-4.632-10.351-10.347 0-5.714 4.634-10.346 10.351-10.346 5.713 0 10.35 4.632 10.35 10.346 0 5.715-4.637 10.347-10.35 10.347zm0 82.773c-5.717 0-10.351-4.63-10.351-10.345 0-5.715 4.634-10.348 10.351-10.348 5.713 0 10.35 4.633 10.35 10.348 0 5.715-4.637 10.345-10.35 10.345zm0 82.774c-5.717 0-10.351-4.634-10.351-10.345 0-5.716 4.634-10.349 10.351-10.349 5.713 0 10.35 4.633 10.35 10.349 0 5.711-4.637 10.345-10.35 10.345zM379.254 20.693c-5.713 0-10.351-4.632-10.351-10.346C368.903 4.632 373.541 0 379.254 0c5.716 0 10.351 4.632 10.351 10.347 0 5.714-4.635 10.346-10.351 10.346zm0 82.774c-5.713 0-10.351-4.633-10.351-10.347 0-5.714 4.638-10.347 10.351-10.347 5.716 0 10.351 4.633 10.351 10.347 0 5.714-4.635 10.347-10.351 10.347zm0 82.773c-5.713 0-10.351-4.632-10.351-10.347 0-5.714 4.638-10.346 10.351-10.346 5.716 0 10.351 4.632 10.351 10.346 0 5.715-4.635 10.347-10.351 10.347zm0 82.773c-5.713 0-10.351-4.63-10.351-10.345 0-5.715 4.638-10.348 10.351-10.348 5.716 0 10.351 4.633 10.351 10.348 0 5.715-4.635 10.345-10.351 10.345zm0 82.774c-5.713 0-10.351-4.634-10.351-10.345 0-5.716 4.638-10.349 10.351-10.349 5.716 0 10.351 4.633 10.351 10.349 0 5.711-4.635 10.345-10.351 10.345zM747.995 20.693c-5.713 0-10.351-4.632-10.351-10.346C737.644 4.632 742.282 0 747.995 0c5.716 0 10.35 4.632 10.35 10.347 0 5.714-4.634 10.346-10.35 10.346zm0 82.774c-5.713 0-10.351-4.633-10.351-10.347 0-5.714 4.638-10.347 10.351-10.347 5.716 0 10.35 4.633 10.35 10.347 0 5.714-4.634 10.347-10.35 10.347zm0 82.773c-5.713 0-10.351-4.632-10.351-10.347 0-5.714 4.638-10.346 10.351-10.346 5.716 0 10.35 4.632 10.35 10.346 0 5.715-4.634 10.347-10.35 10.347zm0 82.773c-5.713 0-10.351-4.63-10.351-10.345 0-5.715 4.638-10.348 10.351-10.348 5.716 0 10.35 4.633 10.35 10.348 0 5.715-4.634 10.345-10.35 10.345zm0 82.774c-5.713 0-10.351-4.634-10.351-10.345 0-5.716 4.638-10.349 10.351-10.349 5.716 0 10.35 4.633 10.35 10.349 0 5.711-4.634 10.345-10.35 10.345zM1116.74 20.693c-5.72 0-10.35-4.632-10.35-10.346 0-5.715 4.63-10.347 10.35-10.347 5.71 0 10.35 4.632 10.35 10.347 0 5.714-4.64 10.346-10.35 10.346zm0 82.774c-5.72 0-10.35-4.633-10.35-10.347 0-5.714 4.63-10.347 10.35-10.347 5.71 0 10.35 4.633 10.35 10.347 0 5.714-4.64 10.347-10.35 10.347zm0 82.773c-5.72 0-10.35-4.632-10.35-10.347 0-5.714 4.63-10.346 10.35-10.346 5.71 0 10.35 4.632 10.35 10.346 0 5.715-4.64 10.347-10.35 10.347zm0 82.773c-5.72 0-10.35-4.63-10.35-10.345 0-5.715 4.63-10.348 10.35-10.348 5.71 0 10.35 4.633 10.35 10.348 0 5.715-4.64 10.345-10.35 10.345zm0 82.774c-5.72 0-10.35-4.634-10.35-10.345 0-5.716 4.63-10.349 10.35-10.349 5.71 0 10.35 4.633 10.35 10.349 0 5.711-4.64 10.345-10.35 10.345zM993.822 20.693c-5.716 0-10.351-4.632-10.351-10.346C983.471 4.632 988.106 0 993.822 0c5.713 0 10.348 4.632 10.348 10.347 0 5.714-4.635 10.346-10.348 10.346zm0 82.774c-5.716 0-10.351-4.633-10.351-10.347 0-5.714 4.635-10.347 10.351-10.347 5.713 0 10.348 4.633 10.348 10.347 0 5.714-4.635 10.347-10.348 10.347zm0 82.773c-5.716 0-10.351-4.632-10.351-10.347 0-5.714 4.635-10.346 10.351-10.346 5.713 0 10.348 4.632 10.348 10.346 0 5.715-4.635 10.347-10.348 10.347zm0 82.773c-5.716 0-10.351-4.63-10.351-10.345 0-5.715 4.635-10.348 10.351-10.348 5.713 0 10.348 4.633 10.348 10.348 0 5.715-4.635 10.345-10.348 10.345zm0 82.774c-5.716 0-10.351-4.634-10.351-10.345 0-5.716 4.635-10.349 10.351-10.349 5.713 0 10.348 4.633 10.348 10.349 0 5.711-4.635 10.345-10.348 10.345zM870.908 20.693c-5.713 0-10.35-4.632-10.35-10.346 0-5.715 4.637-10.347 10.35-10.347 5.717 0 10.351 4.632 10.351 10.347 0 5.714-4.634 10.346-10.351 10.346zm0 82.774c-5.713 0-10.35-4.633-10.35-10.347 0-5.714 4.637-10.347 10.35-10.347 5.717 0 10.351 4.633 10.351 10.347 0 5.714-4.634 10.347-10.351 10.347zm0 82.773c-5.713 0-10.35-4.632-10.35-10.347 0-5.714 4.637-10.346 10.35-10.346 5.717 0 10.351 4.632 10.351 10.346 0 5.715-4.634 10.347-10.351 10.347zm0 82.773c-5.713 0-10.35-4.63-10.35-10.345 0-5.715 4.637-10.348 10.35-10.348 5.717 0 10.351 4.633 10.351 10.348 0 5.715-4.634 10.345-10.351 10.345zm0 82.774c-5.713 0-10.35-4.634-10.35-10.345 0-5.716 4.637-10.349 10.35-10.349 5.717 0 10.351 4.633 10.351 10.349 0 5.711-4.634 10.345-10.351 10.345zM1239.65 20.693c-5.71 0-10.35-4.632-10.35-10.346 0-5.715 4.64-10.347 10.35-10.347 5.72 0 10.35 4.632 10.35 10.347 0 5.714-4.63 10.346-10.35 10.346zm0 82.774c-5.71 0-10.35-4.633-10.35-10.347 0-5.714 4.64-10.347 10.35-10.347 5.72 0 10.35 4.633 10.35 10.347 0 5.714-4.63 10.347-10.35 10.347zm0 82.773c-5.71 0-10.35-4.632-10.35-10.347 0-5.714 4.64-10.346 10.35-10.346 5.72 0 10.35 4.632 10.35 10.346 0 5.715-4.63 10.347-10.35 10.347zm0 82.773c-5.71 0-10.35-4.63-10.35-10.345 0-5.715 4.64-10.348 10.35-10.348 5.72 0 10.35 4.633 10.35 10.348 0 5.715-4.63 10.345-10.35 10.345zm0 82.774c-5.71 0-10.35-4.634-10.35-10.345 0-5.716 4.64-10.349 10.35-10.349 5.72 0 10.35 4.633 10.35 10.349 0 5.711-4.63 10.345-10.35 10.345z" fill="#3D3D3D"/><path fill-rule="evenodd" clip-rule="evenodd" d="M971.04 177.548c0 17.063 13.838 30.897 30.91 30.897 17.07 0 30.91-13.834 30.91-30.897 0-17.065-13.84-30.898-30.91-30.898-17.072 0-30.91 13.833-30.91 30.898z" fill="#FF7171"/><mask id="a" maskUnits="userSpaceOnUse" x="971" y="146" width="62" height="63"><path fill-rule="evenodd" clip-rule="evenodd" d="M971.04 177.548c0 17.063 13.838 30.897 30.91 30.897 17.07 0 30.91-13.834 30.91-30.897 0-17.065-13.84-30.898-30.91-30.898-17.072 0-30.91 13.833-30.91 30.898z" fill="#fff"/></mask><g mask="url(#a)"><path fill-rule="evenodd" clip-rule="evenodd" d="M1002.88 118.653l-62.227 62.226 2.829 2.828 62.228-62.225-2.83-2.829zm6.36 6.364l-62.223 62.226 2.829 2.828 62.224-62.225-2.83-2.829zm-56.566 67.882l62.226-62.225 2.83 2.829-62.227 62.225-2.829-2.829zm67.886-56.568l-62.229 62.225 2.828 2.829 62.221-62.226-2.82-2.828zm-56.572 67.882l62.222-62.225 2.83 2.828-62.224 62.226-2.828-2.829zm67.882-56.568l-62.225 62.225 2.828 2.828 62.227-62.225-2.83-2.828zm-56.568 67.882l62.228-62.226 2.83 2.829-62.23 62.225-2.828-2.828zm68.588-55.862l-62.224 62.226 2.828 2.828 62.226-62.225-2.83-2.829zm-56.568 67.883l62.228-62.226 2.83 2.829-62.229 62.225-2.829-2.828zm67.878-56.569l-62.221 62.226 2.829 2.828 62.222-62.225-2.83-2.829zm-56.564 67.882l62.224-62.225 2.83 2.828-62.23 62.226-2.824-2.829zm67.884-56.568l-62.23 62.225 2.83 2.829 62.23-62.226-2.83-2.828z" fill="#FFF0AE"/></g><path d="M962 176.897c0 17.063 13.838 30.897 30.907 30.897 17.073 0 30.913-13.834 30.913-30.897 0-17.064-13.84-30.897-30.913-30.897C975.838 146 962 159.833 962 176.897" stroke="#3D3D3D" stroke-width="4"/><path fill-rule="evenodd" clip-rule="evenodd" d="M235 266.897c0 17.063 13.838 30.897 30.907 30.897 17.071 0 30.91-13.834 30.91-30.897 0-17.064-13.839-30.897-30.91-30.897C248.838 236 235 249.833 235 266.897z" fill="#FFF0AE"/><path d="M225 266.482c0 17.063 13.838 30.897 30.907 30.897 17.071 0 30.91-13.834 30.91-30.897 0-17.065-13.839-30.898-30.91-30.898-17.069 0-30.907 13.833-30.907 30.898" stroke="#3D3D3D" stroke-width="4"/><path fill-rule="evenodd" clip-rule="evenodd" d="M482 96.897c0 17.063 13.838 30.897 30.907 30.897 17.071 0 30.91-13.834 30.91-30.897 0-17.064-13.839-30.897-30.91-30.897C495.838 66 482 79.833 482 96.897z" fill="#3D3D3D"/><path d="M482 96.897c0 17.063 13.838 30.897 30.907 30.897 17.071 0 30.91-13.834 30.91-30.897 0-17.064-13.839-30.897-30.91-30.897C495.838 66 482 79.833 482 96.897" stroke="#3D3D3D" stroke-width="4"/><path fill-rule="evenodd" clip-rule="evenodd" d="M471.484 96.897c0 17.063 13.838 30.897 30.907 30.897 17.071 0 30.91-13.834 30.91-30.897 0-17.064-13.839-30.897-30.91-30.897-17.069 0-30.907 13.833-30.907 30.897z" fill="#fff"/><path d="M471.484 96.897c0 17.063 13.838 30.897 30.907 30.897 17.071 0 30.91-13.834 30.91-30.897 0-17.064-13.839-30.897-30.91-30.897-17.069 0-30.907 13.833-30.907 30.897" stroke="#3D3D3D" stroke-width="4"/></svg>