<svg width="64" height="64" fill="none" xmlns="http://www.w3.org/2000/svg"><path fill-rule="evenodd" clip-rule="evenodd" d="M6.286 23.238a6.286 6.286 0 100-12.571 6.286 6.286 0 000 12.571zm0 16.343a6.286 6.286 0 100-12.571 6.286 6.286 0 000 12.571zM44 16.952a6.286 6.286 0 11-12.571 0 6.286 6.286 0 0112.571 0zm-22.629 6.286a6.286 6.286 0 100-12.571 6.286 6.286 0 000 12.571zm7.543 10.057a6.286 6.286 0 11-12.571 0 6.286 6.286 0 0112.571 0zM6.286 54.667a6.286 6.286 0 100-12.572 6.286 6.286 0 000 12.572zM44 48.38a6.286 6.286 0 11-12.571 0 6.286 6.286 0 0112.571 0z" fill="#3D3D3D"/></svg>