<svg width="710" height="576" fill="none" xmlns="http://www.w3.org/2000/svg"><path fill-rule="evenodd" clip-rule="evenodd" d="M586.551 320.13l-53.079 28.02 46.977-39.18c-7.635-13.293-16.212-25.882-25.649-37.647l-230.198 63.819 207.934-88.472A270.466 270.466 0 00502.341 221l-350.768 63.018C114.331 335.963 94.029 400.488 94 467h528c-.021-51.583-12.25-102.246-35.449-146.87zM474 197.679C364.895 138.43 233.662 169.926 156 274c82.791-20.254 226.937-55.315 318-76.321z" fill="#F6F6F6"/><path d="M17 15a4 4 0 100-8 4 4 0 000 8zm13 0a4 4 0 100-8 4 4 0 000 8z" fill="#3D3D3D"/><path stroke="#3D3D3D" stroke-width="2" d="M1 1h708v574H1z"/><path d="M51 52.5C51 61.613 43.613 69 34.5 69S18 61.613 18 52.5 25.387 36 34.5 36 51 43.387 51 52.5zM50 116h610v417H50z" stroke="#3D3D3D" stroke-width="2"/><path d="M43 15a4 4 0 100-8 4 4 0 000 8zM0 20h710v2H0z" fill="#3D3D3D"/><path fill-rule="evenodd" clip-rule="evenodd" d="M666 39h27v2h-27v-2zm0 8h27v2h-27v-2zm27 8h-27v2h27v-2z" fill="#3D3D3D"/><path d="M140.063 481.275v9.474l-14.307-9.605a.463.463 0 00-.503-.003.565.565 0 00-.253.478v20.762c.001.198.097.38.253.478a.463.463 0 00.503-.003l14.307-9.605v9.474c0 .152.112.275.249.275h4.438c.138 0 .25-.123.25-.275v-21.45c0-.152-.112-.275-.25-.275h-4.438c-.137 0-.249.123-.249.275z" fill="#3D3D3D"/><path fill-rule="evenodd" clip-rule="evenodd" d="M98.506 503h3.988a.479.479 0 00.357-.16.586.586 0 00.149-.39v-20.9a.586.586 0 00-.149-.39.479.479 0 00-.357-.16h-3.988a.477.477 0 00-.356.16.58.58 0 00-.15.39v20.9a.58.58 0 00.15.39.477.477 0 00.356.16zm11 0h3.988a.479.479 0 00.357-.16.586.586 0 00.149-.39v-20.9a.586.586 0 00-.149-.39.479.479 0 00-.357-.16h-3.988a.479.479 0 00-.357.16.586.586 0 00-.149.39v20.9a.586.586 0 00.149.39.479.479 0 00.357.16z" fill="#3D3D3D"/><path fill-rule="evenodd" clip-rule="evenodd" d="M73 481.564v20.869a.553.553 0 00.232.487.448.448 0 00.5.008l15.029-10.434a.61.61 0 00.239-.492.61.61 0 00-.24-.492l-15.028-10.434a.446.446 0 00-.5.001.55.55 0 00-.231.487z" fill="#FF7171"/><path fill="#3D3D3D" d="M76 467h554v4H76z"/><path fill="#FF7171" d="M76 467h96v4H76z"/><path d="M596.357 426l-1.873-1.564c-6.658-5.664-11.048-9.333-11.448-14.395-.185-1.942.349-3.885 1.48-5.385s2.762-2.43 4.523-2.578c2.08-.189 4.13.643 5.606 2.276 1.198-1.892 3.086-3.105 5.164-3.319 1.757-.192 3.51.41 4.859 1.67 1.349 1.26 2.18 3.071 2.303 5.02.4 5.061-3.348 9.518-9.016 16.375l-1.598 1.9zm21.438-26l-1.01-2.284c-3.552-8.211-5.92-13.568-4.226-18.178.623-1.784 1.876-3.216 3.474-3.968a5.9 5.9 0 015.009-.024c1.901.858 3.363 2.591 3.997 4.741 1.815-1.061 3.962-1.191 5.871-.355 1.619.696 2.912 2.082 3.587 3.844a7.723 7.723 0 01-.009 5.508c-1.694 4.61-6.781 6.653-14.523 9.845l-2.17.871zm-9 57l-1.01-2.284c-3.552-8.211-5.92-13.568-4.226-18.178.623-1.784 1.876-3.216 3.474-3.968a5.9 5.9 0 015.009-.024c1.901.858 3.363 2.591 3.997 4.741 1.815-1.061 3.962-1.191 5.871-.355 1.619.696 2.912 2.082 3.587 3.844a7.723 7.723 0 01-.009 5.508c-1.694 4.61-6.781 6.653-14.523 9.845l-2.17.871z" fill="#FF6584"/><path stroke="#3D3D3D" stroke-width="2" d="M182 42h346v24H182z"/></svg>